<?xml version="1.0" encoding="UTF-8" standalone="no"?>
<!-- Created with Inkscape (http://www.inkscape.org/) -->

<svg
   width="69.470673mm"
   height="19.665688mm"
   viewBox="0 0 69.470673 19.665688"
   version="1.1"
   id="svg5"
   inkscape:version="1.1.2 (0a00cf5339, 2022-02-04)"
   sodipodi:docname="ToastXC.svg"
   inkscape:export-filename="/home/vale/Documents/ToastXC_Site/ToastXC.png"
   inkscape:export-xdpi="300"
   inkscape:export-ydpi="300"
   xmlns:inkscape="http://www.inkscape.org/namespaces/inkscape"
   xmlns:sodipodi="http://sodipodi.sourceforge.net/DTD/sodipodi-0.dtd"
   xmlns="http://www.w3.org/2000/svg"
   xmlns:svg="http://www.w3.org/2000/svg">
  <sodipodi:namedview
     id="namedview7"
     pagecolor="#505050"
     bordercolor="#ffffff"
     borderopacity="1"
     inkscape:pageshadow="0"
     inkscape:pageopacity="0"
     inkscape:pagecheckerboard="1"
     inkscape:document-units="mm"
     showgrid="false"
     inkscape:zoom="2.1072128"
     inkscape:cx="138.57167"
     inkscape:cy="88.268255"
     inkscape:window-width="1800"
     inkscape:window-height="1180"
     inkscape:window-x="0"
     inkscape:window-y="0"
     inkscape:window-maximized="1"
     inkscape:current-layer="layer1"
     fit-margin-top="0"
     fit-margin-left="0"
     fit-margin-right="0"
     fit-margin-bottom="0"
     inkscape:snap-page="true" />
  <defs
     id="defs2" />
  <g
     inkscape:groupmode="layer"
     id="layer2"
     inkscape:label="Toast"
     transform="translate(-10.544807,-88.534169)" />
  <g
     inkscape:groupmode="layer"
     id="layer3"
     inkscape:label="bg"
     transform="translate(8.195466,-0.44916638)">
    <rect
       style="fill:none;stroke-width:0.964215;stroke-linecap:round;stroke-linejoin:round;paint-order:stroke fill markers"
       id="rect853"
       width="69.470673"
       height="7.2195106"
       x="-8.195466"
       y="6.6722546"
       inkscape:export-filename="/home/vale/Documents/ToastXC_Site/ToastXC.png"
       inkscape:export-xdpi="300"
       inkscape:export-ydpi="300" />
    <path
       style="fill:none;stroke-width:0.115961"
       d="m 25.900205,10.33131 c 0.441189,-0.02953 0.86783,-0.0625 1.279331,-0.0986 -0.415954,0.03709 -0.842595,0.0702 -1.279331,0.0986 z"
       id="path4658"
       inkscape:export-filename="/home/vale/Documents/ToastXC_Site/ToastXC.png"
       inkscape:export-xdpi="300"
       inkscape:export-ydpi="300" />
  </g>
  <g
     inkscape:label="Layer 1"
     inkscape:groupmode="layer"
     id="layer1"
     transform="translate(-10.544807,-88.534169)">
    <g
       id="Guides_For_Artboard"
       transform="matrix(0.26458333,0,0,0.26458333,-14.383082,47.909778)" />
    <g
       id="Artwork"
       transform="matrix(0.26458333,0,0,0.26458333,-14.383082,47.909778)" />
    <g
       id="g964"
       transform="translate(5.5730015,0.44916721)"
       inkscape:export-filename="/home/vale/Documents/ToastXC_Site/ToastXC.png"
       inkscape:export-xdpi="300"
       inkscape:export-ydpi="300">
      <g
         id="g13551"
         transform="translate(7.0833334e-8,-0.52916762)">
        <path
           style="fill:#f6e0c2;stroke:#735542;stroke-width:2;stroke-miterlimit:4;stroke-dasharray:none;stroke-opacity:1;paint-order:stroke fill markers"
           d="m 58.081908,92.901895 c -0.17506,-0.134872 -0.363285,-0.261837 -0.564279,-0.382948 -1.335639,-0.75084 -2.786052,-1.205244 -5.179242,-1.863765 -2.393651,-0.656488 -3.871484,-1.006511 -5.394292,-1.040925 -0.233196,0.0018 -0.45804,0.01525 -0.67544,0.04238 -1.533761,0.190798 -2.76018,1.110938 -3.115736,2.471386 -0.279851,1.070781 0.07885,2.263183 0.787388,2.998026 0.07686,0.07844 0.158168,0.153277 0.244174,0.223859 0.214624,0.17109 0.333833,0.298468 0.249914,0.686486 -0.08957,0.414194 -1.678001,6.435796 -2.018632,7.726236 -0.04106,0.15551 0.02215,0.26599 0.16961,0.3065 l 5.828768,1.60124 5.828833,1.60126 c 0.14746,0.0405 0.256087,-0.0228 0.296365,-0.17849 0.33434,-1.29218 1.895381,-7.321299 2.019812,-7.725915 0.116557,-0.379052 0.281915,-0.428256 0.551225,-0.466403 0.108839,-0.01705 0.215802,-0.0401 0.320634,-0.0687 0.971971,-0.273113 1.864152,-1.121954 2.144002,-2.192735 0.35549,-1.360466 -0.257878,-2.786019 -1.493104,-3.737495 z"
           id="path4660" />
        <text
           xml:space="preserve"
           style="font-style:normal;font-variant:normal;font-weight:normal;font-stretch:normal;font-size:9.26665px;line-height:1.25;font-family:'Wobbly BRK';-inkscape-font-specification:'Wobbly BRK';fill:#735542;fill-opacity:1;stroke:none;stroke-width:2;stroke-miterlimit:4;stroke-dasharray:none;stroke-opacity:1;paint-order:stroke fill markers"
           x="69.024254"
           y="85.732056"
           id="text4086"
           transform="rotate(15)"><tspan
             sodipodi:role="line"
             id="tspan4084"
             style="font-style:normal;font-variant:normal;font-weight:normal;font-stretch:normal;font-family:'Wobbly BRK';-inkscape-font-specification:'Wobbly BRK';fill:#735542;fill-opacity:1;stroke:none;stroke-width:2;stroke-miterlimit:4;stroke-dasharray:none;stroke-opacity:1;paint-order:stroke fill markers"
             x="69.024254"
             y="85.732056">XC</tspan></text>
      </g>
      <text
         xml:space="preserve"
         style="font-style:normal;font-weight:normal;font-size:10.5833px;line-height:1.25;font-family:sans-serif;fill:#f6e0c2;fill-opacity:1;stroke:#735542;stroke-width:2.2;stroke-miterlimit:4;stroke-dasharray:none;stroke-opacity:1;paint-order:stroke fill markers"
         x="19.745024"
         y="100.80728"
         id="text1442"><tspan
           sodipodi:role="line"
           id="tspan1440"
           style="font-style:normal;font-variant:normal;font-weight:normal;font-stretch:normal;font-family:'Wobbly BRK';-inkscape-font-specification:'Wobbly BRK';fill:#f6e0c2;fill-opacity:1;stroke:#735542;stroke-width:2.2;stroke-miterlimit:4;stroke-dasharray:none;stroke-opacity:1;paint-order:stroke fill markers"
           x="19.745024"
           y="100.80728">Toast</tspan></text>
    </g>
  </g>
</svg>
